<svg xmlns="http://www.w3.org/2000/svg" width="1000" height="620" viewBox="0 0 1000 620" role="img" aria-label="Omega Speedmaster">
  <defs>
    <linearGradient id="bg" x1="0" y1="0" x2="1" y2="1">
      <stop offset="0" stop-color="#161618"/>
      <stop offset="1" stop-color="#0E0E10"/>
    </linearGradient>
    <linearGradient id="gold" x1="0" y1="0" x2="1" y2="0">
      <stop offset="0" stop-color="#E8C887"/>
      <stop offset="1" stop-color="#B8923F"/>
    </linearGradient>
    <radialGradient id="glow" cx="0.5" cy="0.4" r="0.7">
      <stop offset="0" stop-color="#1F1F22"/>
      <stop offset="1" stop-color="#0E0E10" stop-opacity="0"/>
    </radialGradient>
  </defs>
  <rect width="1000" height="620" fill="url(#bg)"/>
  <rect width="1000" height="620" fill="url(#glow)"/>
  <rect x="10.5" y="10.5" width="979" height="599" fill="none" stroke="url(#gold)" stroke-opacity="0.28"/>
  
    <g stroke="#C9A45F" stroke-width="1.25" fill="none" opacity="0.55">
      <circle cx="500" cy="272.8" r="124" />
      <circle cx="500" cy="272.8" r="117" stroke-opacity="0.5" />
      <line x1="500" y1="272.8" x2="500" y2="204.60000000000002" />
      <line x1="500" y1="272.8" x2="552.08" y2="295.12" />
      <circle cx="500" cy="272.8" r="1.6" fill="#C9A45F" stroke="none" />
      <rect x="623" y="268.8" width="6" height="8" rx="1" />
      <path d="M 431.8 148.8 L 413.2 126.80000000000001
               M 568.2 148.8 L 586.8 126.80000000000001
               M 431.8 396.8 L 413.2 418.8
               M 568.2 396.8 L 586.8 418.8"
            stroke-opacity="0.45" />
    </g>
  <text x="500" y="574" fill="#F5F2EC" font-family="Georgia, serif" font-size="20" text-anchor="middle" letter-spacing="0.04em">Omega Speedmaster</text>
  <text x="500" y="596" fill="#8A857B" font-family="Inter, sans-serif" font-size="11" text-anchor="middle" letter-spacing="0.22em">PLACEHOLDER</text>
</svg>