<svg xmlns="http://www.w3.org/2000/svg" width="760" height="760" viewBox="0 0 760 760" role="img" aria-label="Rolex Submariner">
  <defs>
    <linearGradient id="bg" x1="0" y1="0" x2="1" y2="1">
      <stop offset="0" stop-color="#161618"/>
      <stop offset="1" stop-color="#0E0E10"/>
    </linearGradient>
    <linearGradient id="gold" x1="0" y1="0" x2="1" y2="0">
      <stop offset="0" stop-color="#E8C887"/>
      <stop offset="1" stop-color="#B8923F"/>
    </linearGradient>
    <radialGradient id="glow" cx="0.5" cy="0.4" r="0.7">
      <stop offset="0" stop-color="#1F1F22"/>
      <stop offset="1" stop-color="#0E0E10" stop-opacity="0"/>
    </radialGradient>
  </defs>
  <rect width="760" height="760" fill="url(#bg)"/>
  <rect width="760" height="760" fill="url(#glow)"/>
  <rect x="10.5" y="10.5" width="739" height="739" fill="none" stroke="url(#gold)" stroke-opacity="0.28"/>
  
    <g stroke="#C9A45F" stroke-width="1.25" fill="none" opacity="0.55">
      <circle cx="380" cy="334.4" r="152" />
      <circle cx="380" cy="334.4" r="145" stroke-opacity="0.5" />
      <line x1="380" y1="334.4" x2="380" y2="250.79999999999995" />
      <line x1="380" y1="334.4" x2="443.84" y2="361.76" />
      <circle cx="380" cy="334.4" r="1.6" fill="#C9A45F" stroke="none" />
      <rect x="531" y="330.4" width="6" height="8" rx="1" />
      <path d="M 296.4 182.39999999999998 L 273.6 160.39999999999998
               M 463.6 182.39999999999998 L 486.4 160.39999999999998
               M 296.4 486.4 L 273.6 508.4
               M 463.6 486.4 L 486.4 508.4"
            stroke-opacity="0.45" />
    </g>
  <text x="380" y="714" fill="#F5F2EC" font-family="Georgia, serif" font-size="20" text-anchor="middle" letter-spacing="0.04em">Rolex Submariner</text>
  <text x="380" y="736" fill="#8A857B" font-family="Inter, sans-serif" font-size="11" text-anchor="middle" letter-spacing="0.22em">PLACEHOLDER</text>
</svg>